<?xml version="1.0" encoding="iso-8859-1"?>
<!-- Generator: Adobe Illustrator 19.0.0, SVG Export Plug-In . SVG Version: 6.00 Build 0)  -->
<svg version="1.1" id="Capa_1" xmlns="http://www.w3.org/2000/svg" xmlns:xlink="http://www.w3.org/1999/xlink" x="0px" y="0px"
	 viewBox="0 0 512 512" style="enable-background:new 0 0 512 512;" xml:space="preserve">
<g>
	<g>
		<path d="M256,0c-62.737,0-113.778,54.223-113.778,120.872S193.263,241.744,256,241.744s113.778-54.223,113.778-120.872
			S318.737,0,256,0z M256,211.838c-46.247,0-83.871-40.807-83.871-90.965S209.753,29.907,256,29.907
			c46.246,0,83.871,40.807,83.871,90.965C339.871,171.03,302.246,211.838,256,211.838z"/>
	</g>
</g>
<g>
	<g>
		<path d="M256,269.786c-116.131,0-210.61,94.479-210.61,210.61V512h421.22v-31.603C466.61,364.266,372.131,269.786,256,269.786z
			 M436.703,482.093H75.297v-1.697c0-99.64,81.063-180.703,180.703-180.703s180.703,81.063,180.703,180.703V482.093z"/>
	</g>
</g>
<g>
</g>
<g>
</g>
<g>
</g>
<g>
</g>
<g>
</g>
<g>
</g>
<g>
</g>
<g>
</g>
<g>
</g>
<g>
</g>
<g>
</g>
<g>
</g>
<g>
</g>
<g>
</g>
<g>
</g>
</svg>
