<?xml version="1.0" encoding="iso-8859-1"?>
<!-- Generator: Adobe Illustrator 19.0.0, SVG Export Plug-In . SVG Version: 6.00 Build 0)  -->
<svg version="1.1" id="Capa_1" xmlns="http://www.w3.org/2000/svg" xmlns:xlink="http://www.w3.org/1999/xlink" x="0px" y="0px"
	 viewBox="0 0 512 512" style="enable-background:new 0 0 512 512;" xml:space="preserve">
<g>
	<g>
		<path d="M475.85,65.453h-150.6V0h-138.5v65.453H36.15v120.102h29.362L98.286,512h315.427l32.775-326.445h29.362L475.85,65.453
			L475.85,65.453z M216.75,30h78.5v35.453h-78.5V30z M386.575,482h-261.15L95.663,185.555h320.674L386.575,482z M445.85,155.555
			H66.15V95.453h379.7V155.555z"/>
	</g>
</g>
<g>
	<g>
		<rect x="241" y="247" width="30" height="165.5"/>
	</g>
</g>
<g>
	<g>
		<polygon points="321.171,247 312.257,412.5 342.299,412.5 351.215,247 		"/>
	</g>
</g>
<g>
	<g>
		<polygon points="190.828,247 160.785,247 169.7,412.5 199.742,412.5 		"/>
	</g>
</g>
<g>
</g>
<g>
</g>
<g>
</g>
<g>
</g>
<g>
</g>
<g>
</g>
<g>
</g>
<g>
</g>
<g>
</g>
<g>
</g>
<g>
</g>
<g>
</g>
<g>
</g>
<g>
</g>
<g>
</g>
</svg>
