<?xml version="1.0" encoding="iso-8859-1"?>
<!-- Generator: Adobe Illustrator 19.0.0, SVG Export Plug-In . SVG Version: 6.00 Build 0)  -->
<svg version="1.1" id="Capa_1" xmlns="http://www.w3.org/2000/svg" xmlns:xlink="http://www.w3.org/1999/xlink" x="0px" y="0px"
	 viewBox="0 0 512 512" style="enable-background:new 0 0 512 512;" xml:space="preserve">
<g>
	<g>
		<path d="M421.82,133.705h-0.93c0.07-1.63,0.1-3.27,0.1-4.91c0-63.09-51.32-114.41-114.41-114.41c-25.36,0-49.38,8.13-69.47,23.5
			c-13.99,10.7-25.36,24.62-33.14,40.31c-13.13-7.16-27.92-10.98-43.12-10.98c-49.73,0-90.18,40.46-90.18,90.19
			c0,1.08,0.02,2.16,0.05,3.25C31.21,163.775,0,196.935,0,237.235c0,42.37,34.47,76.83,76.83,76.83h122.79v30.51l-65.31,0.14
			l122.33,152.9l120.81-152.9l-64.36-0.14v-30.51h108.73c49.72,0,90.18-40.45,90.18-90.18S471.54,133.705,421.82,133.705z
			 M315.62,374.575l-59.13,74.83l-59.87-74.83l33-0.07v-140.76h53.47v140.76L315.62,374.575z M421.82,284.065H313.09v-80.32H199.62
			v80.32H76.83c-25.82,0-46.83-21-46.83-46.83c0-25.82,21.01-46.82,46.83-46.82c2.81,0,5.69,0.26,8.56,0.79l23.19,4.28l-5.96-22.82
			c-1.3-4.97-1.95-10.1-1.95-15.26c0-33.19,26.99-60.19,60.18-60.19c14.83,0,29.09,5.46,40.14,15.36l17.84,15.98l6.59-23.03
			c10.3-36,43.67-61.14,81.16-61.14c46.54,0,84.41,37.86,84.41,84.41c0,6.35-0.71,12.69-2.11,18.83l-5.42,23.82l23.69-5.94
			c4.79-1.19,9.73-1.8,14.67-1.8c33.18,0,60.18,27,60.18,60.18C482,257.075,455,284.065,421.82,284.065z"/>
	</g>
</g>
<g>
</g>
<g>
</g>
<g>
</g>
<g>
</g>
<g>
</g>
<g>
</g>
<g>
</g>
<g>
</g>
<g>
</g>
<g>
</g>
<g>
</g>
<g>
</g>
<g>
</g>
<g>
</g>
<g>
</g>
</svg>
