<?xml version="1.0" encoding="iso-8859-1"?>
<!-- Generator: Adobe Illustrator 19.0.0, SVG Export Plug-In . SVG Version: 6.00 Build 0)  -->
<svg version="1.1" id="Capa_1" xmlns="http://www.w3.org/2000/svg" xmlns:xlink="http://www.w3.org/1999/xlink" x="0px" y="0px"
	 viewBox="0 0 512 512" style="enable-background:new 0 0 512 512;" xml:space="preserve">
<g>
	<g>
		<path d="M437.02,74.98C388.668,26.629,324.38,0,256,0S123.332,26.629,74.98,74.98C26.629,123.332,0,187.62,0,256
			s26.629,132.668,74.98,181.02C123.332,485.371,187.62,512,256,512s132.668-26.629,181.02-74.98
			C485.371,388.668,512,324.38,512,256S485.371,123.332,437.02,74.98z M256,482C131.383,482,30,380.617,30,256S131.383,30,256,30
			s226,101.383,226,226S380.617,482,256,482z"/>
	</g>
</g>
<g>
	<g>
		<path d="M406.545,170.827c-24.169-39.477-57.958-47.978-82.048-48.157c-20.385-0.163-40.609,5.696-58.354,16.889L256,145.913
			l-10.104-6.329c-17.784-11.217-37.969-17.073-58.394-16.914c-24.09,0.18-57.879,8.681-82.048,48.157
			c-19.479,31.817-20.015,69.514-1.469,103.426c14.004,25.607,35.394,45.733,56.079,65.195c3.576,3.365,6.953,6.542,10.303,9.759
			c12.681,12.176,25.499,23.895,37.894,35.228c12.26,11.209,24.936,22.799,37.35,34.719L256,429.129l10.389-9.976
			c12.414-11.92,25.091-23.51,37.35-34.719c12.395-11.333,25.212-23.052,37.894-35.228c3.35-3.216,6.727-6.394,10.303-9.759
			c20.685-19.462,42.074-39.588,56.079-65.195C426.56,240.34,426.025,202.644,406.545,170.827z M381.693,259.857
			c-11.715,21.422-31.338,39.885-50.315,57.741c-3.473,3.268-7.064,6.647-10.523,9.968c-12.417,11.923-25.096,23.516-37.358,34.727
			c-9.014,8.241-18.251,16.687-27.497,25.364c-9.246-8.677-18.483-17.122-27.497-25.364c-12.262-11.211-24.942-22.804-37.358-34.727
			c-3.46-3.321-7.05-6.7-10.523-9.968c-18.977-17.855-38.6-36.318-50.315-57.741c-13.248-24.225-12.981-50.966,0.734-73.367
			c13.631-22.264,32.703-33.643,56.686-33.822c0.185-0.001,0.368-0.002,0.552-0.002c14.479,0,28.857,4.245,41.652,12.316
			L256,181.313l26.108-16.355c12.919-8.149,27.475-12.425,42.165-12.289c23.983,0.179,43.055,11.559,56.686,33.823
			C394.674,208.892,394.942,235.633,381.693,259.857z"/>
	</g>
</g>
<g>
</g>
<g>
</g>
<g>
</g>
<g>
</g>
<g>
</g>
<g>
</g>
<g>
</g>
<g>
</g>
<g>
</g>
<g>
</g>
<g>
</g>
<g>
</g>
<g>
</g>
<g>
</g>
<g>
</g>
</svg>
