<?xml version="1.0" encoding="iso-8859-1"?>
<!-- Generator: Adobe Illustrator 19.0.0, SVG Export Plug-In . SVG Version: 6.00 Build 0)  -->
<svg version="1.1" id="Capa_1" xmlns="http://www.w3.org/2000/svg" xmlns:xlink="http://www.w3.org/1999/xlink" x="0px" y="0px"
	 viewBox="0 0 512 512" style="enable-background:new 0 0 512 512;" xml:space="preserve">
<g>
	<g>
		<path d="M512,317.379V194.621l-47.231-7.229c-3.435-10.45-7.665-20.65-12.644-30.487l28.295-38.523l-86.802-86.803l-38.523,28.296
			c-9.836-4.979-20.037-9.209-30.486-12.644L317.379,0H194.621l-7.229,47.232c-10.449,3.435-20.65,7.665-30.486,12.644
			L118.382,31.58L31.58,118.382l28.295,38.523c-4.979,9.836-9.209,20.037-12.644,30.487L0,194.621v122.758l47.231,7.229
			c3.435,10.45,7.665,20.65,12.644,30.487L31.58,393.618l86.802,86.803l38.524-28.296c9.836,4.978,20.037,9.209,30.486,12.644
			L194.621,512h122.758l7.229-47.232c10.449-3.435,20.65-7.665,30.486-12.644l38.523,28.296l86.802-86.803l-28.295-38.523
			c4.978-9.836,9.209-20.037,12.644-30.487L512,317.379z M441.326,297.847l-2.605,9.326c-4.064,14.543-9.899,28.614-17.345,41.823
			l-4.756,8.438l24.374,33.185l-50.376,50.376l-33.184-24.374l-8.439,4.756c-13.209,7.445-27.281,13.28-41.824,17.344l-9.325,2.606
			L291.621,482h-71.242l-6.226-40.674l-9.325-2.606c-14.543-4.064-28.615-9.899-41.824-17.344l-8.439-4.756l-33.184,24.374
			l-50.376-50.376l24.374-33.185l-4.756-8.438c-7.445-13.209-13.28-27.28-17.345-41.823l-2.605-9.326L30,291.621v-71.242
			l40.674-6.226l2.605-9.326c4.065-14.543,9.899-28.614,17.345-41.823l4.756-8.438l-24.374-33.185l50.376-50.376l33.184,24.374
			l8.439-4.756c13.209-7.445,27.281-13.28,41.824-17.344l9.325-2.606L220.379,30h71.242l6.226,40.674l9.325,2.606
			c14.543,4.064,28.615,9.899,41.824,17.344l8.439,4.756l33.184-24.374l50.376,50.376l-24.374,33.185l4.756,8.438
			c7.445,13.209,13.28,27.28,17.345,41.823l2.605,9.326L482,220.379v71.242L441.326,297.847z"/>
	</g>
</g>
<g>
	<g>
		<path d="M256,121.136c-74.364,0-134.863,60.5-134.863,134.864S181.636,390.864,256,390.864S390.863,330.364,390.863,256
			S330.364,121.136,256,121.136z M256,360.864c-57.822,0-104.863-47.042-104.863-104.864S198.178,151.136,256,151.136
			S360.863,198.178,360.863,256S313.822,360.864,256,360.864z"/>
	</g>
</g>
<g>
</g>
<g>
</g>
<g>
</g>
<g>
</g>
<g>
</g>
<g>
</g>
<g>
</g>
<g>
</g>
<g>
</g>
<g>
</g>
<g>
</g>
<g>
</g>
<g>
</g>
<g>
</g>
<g>
</g>
</svg>
